<?xml version="1.0" encoding="utf-8"?>
<!-- Generator: Adobe Illustrator 27.4.0, SVG Export Plug-In . SVG Version: 6.00 Build 0)  -->
<svg version="1.1" id="Capa_1" xmlns="http://www.w3.org/2000/svg" xmlns:xlink="http://www.w3.org/1999/xlink" x="0px" y="0px"
	 viewBox="0 0 512 512" style="enable-background:new 0 0 512 512;" xml:space="preserve">
<style type="text/css">
	.st0{fill:none;stroke:#F2F2F2;stroke-width:10;stroke-linecap:round;stroke-linejoin:round;stroke-miterlimit:10.2221;}
	.st1{fill:none;stroke:#87D328;stroke-width:10;stroke-linecap:round;stroke-linejoin:round;stroke-miterlimit:10.2221;}
</style>
<g>
	<path class="st0" d="M310.1,491.3H87.3c-2.5,0-4.5-2-4.5-4.5v-3.4c0-17.8,14.5-32.3,32.3-32.3h281.8c17.8,0,32.3,14.5,32.3,32.3
		v3.4c0,2.5-2,4.5-4.5,4.5h-78.8"/>
	<path class="st1" d="M182.6,426.7c0,13.5-10.9,24.5-24.5,24.5c-13.5,0-24.5-10.9-24.5-24.5c0-8.7,10.2-23.3,17.4-32.6
		c3.6-4.6,10.5-4.6,14.1,0C172.4,403.4,182.6,418,182.6,426.7z"/>
	<path class="st1" d="M280.5,426.7c0,13.5-10.9,24.5-24.5,24.5c-13.5,0-24.5-10.9-24.5-24.5c0-8.7,10.2-23.3,17.4-32.6
		c3.6-4.6,10.5-4.6,14.1,0C270.3,403.4,280.5,418,280.5,426.7z"/>
	<path class="st1" d="M378.3,426.7c0,13.5-10.9,24.5-24.5,24.5s-24.5-10.9-24.5-24.5c0-8.7,10.2-23.3,17.4-32.6
		c3.6-4.6,10.5-4.6,14.1,0C368.1,403.4,378.3,418,378.3,426.7z"/>
	<path class="st0" d="M200.5,193.1h227.2c6.8,0,12.3,5.5,12.3,12.3v111.2c0,38.7-31.4,70.1-70.1,70.1H142.1
		c-38.7,0-70.1-31.4-70.1-70.1V205.4c0-6.8,5.5-12.3,12.3-12.3h80.3"/>
	<path class="st0" d="M282.3,190.2l45.9-147.1c4.2-13.3,16.5-22.4,30.4-22.4l0,0c22.7,0,38.2,23.1,29.4,44.1L336,190"/>
	<path class="st0" d="M72,247.4H38.4c-17,0-30.8-13.8-30.8-30.8l0,0c0-2.6,2.1-4.7,4.7-4.7H72V247.4z"/>
	<path class="st0" d="M440,247.4h38.3c14.4,0,26.1-11.7,26.1-26.1v-4.7c0-2.6-2.1-4.7-4.7-4.7H440V247.4L440,247.4z"/>
	<path class="st0" d="M414.5,108.4c-15.5,5.6-42,9.3-71.9,9.3c-47.8,0-86.6-9.4-86.6-21c0-9.1,23.8-16.9,57.2-19.8"/>
	<polyline class="st0" points="422.5,119.6 426,100.4 407.5,94.2 	"/>
</g>
</svg>
