<?xml version="1.0" encoding="utf-8"?>
<!-- Generator: Adobe Illustrator 27.3.1, SVG Export Plug-In . SVG Version: 6.00 Build 0)  -->
<svg version="1.1" id="svg3606" xmlns:svg="http://www.w3.org/2000/svg"
	 xmlns="http://www.w3.org/2000/svg" xmlns:xlink="http://www.w3.org/1999/xlink" x="0px" y="0px" viewBox="0 0 682.7 682.7"
	 style="enable-background:new 0 0 682.7 682.7;" xml:space="preserve">
<style type="text/css">
	.st0{fill:none;stroke:#006A75;stroke-width:15;stroke-linecap:round;stroke-linejoin:round;stroke-miterlimit:13.3333;}
</style>
<g id="g3616">
	<g id="g3622" transform="translate(168.9492,90.3223)">
		<path id="path3624" class="st0" d="M56.3,471.9l2-35c0.5-8.2-0.6-10.5-9-14.7c-41.6-20.8-70.7-66.7-70.7-120.2V106.3l43.5,5.2
			v134.3C22,260.7,34.5,273,49.4,273c15,0,27.2-12.2,27.2-27.2V117.9l43.5,5.2v122.6c-0.2,15,12.4,27.2,27.2,27.2
			c15,0,27.2-12.2,27.2-27.2V129.6l43.5,5.2v167.2c0,53.5-29,99.5-70.6,120.1c-8.2,4-9.7,7.2-9.2,14.8l6.6,115.3
			c0.5,8-2.7,10.5-10,10.5H61.7c-6.3,0-10.4-3.4-9.9-10.5l2-35.1"/>
	</g>
	<g id="g3626" transform="translate(240.8896,475.7617)">
		<path id="path3628" class="st0" d="M80.3-427.4l128.1-15.2c31.6-3.7,59.7,21.3,59.8,53.1v93.2c0,33.1-29.7,58.1-62.2,52.8
			l-389.7-46.3c-29.3-3.5-50.3-30-46.8-59.4c3-25.3,23.3-44.4,47.7-46.9l218.2-25.9"/>
	</g>
	<g id="g3630" transform="translate(458.8926,387.0986)">
		<path id="path3632" class="st0" d="M153-220.6c-8,1.2-16.7,1.8-26.3,1.8c-33,0-61.7-7.4-76.5-18.5 M50.2-271.3
			c14.8-11,43.5-18.5,76.5-18.5c48.1,0,75.1,15.9,87.1,35.5c-4.2,6.8-10.2,13.3-18.4,18.7"/>
	</g>
	<g id="g3634" transform="translate(431.2842,438.8281)">
		<path id="path3636" class="st0" d="M143.8-341.3c24-26.1,29.5-49.3,25.3-66.7c-18.5-4.5-43.6,2-71.7,30.2
			c-7.7,7.7-14.3,15.6-19.6,23.4v31.3C91-332.8,115.2-339.9,143.8-341.3z M97.4-234.3c28.2,28.2,53.3,34.7,71.7,30.2
			c4.2-17.3-1.3-40.6-25.3-66.7c-28.5-1.4-52.8-8.4-66-18.3v31.3C83.1-249.9,89.7-241.9,97.4-234.3z"/>
	</g>
	<g id="g3638" transform="translate(58.7695,454.1064)">
		<path id="path3640" class="st0" d="M19.6-376.9v35.9"/>
	</g>
	<g id="g3642" transform="translate(324.1377,382.6191)">
		<path id="path3644" class="st0" d="M108-210.1v58"/>
	</g>
	<g id="g3646" transform="translate(200.4687,380.8057)">
		<path id="path3648" class="st0" d="M66.8-205.9v35.9"/>
	</g>
	<g id="g3650" transform="translate(251.1777,414.877)">
		<path id="path3652" class="st0" d="M83.7-285.4v35.9"/>
	</g>
	<g id="g3654" transform="translate(126.9971,401.4121)">
		<path id="path3656" class="st0" d="M42.3-254v51.7"/>
	</g>
	<g id="g3658" transform="translate(292.0811,481.8564)">
		<path id="path3660" class="st0" d="M97.4-441.7v51.8"/>
	</g>
	<g id="g3662" transform="translate(163.6758,466.5781)">
		<path id="path3664" class="st0" d="M54.6-406v60.5"/>
	</g>
</g>
</svg>
