<?xml version="1.0" encoding="utf-8"?>
<!-- Generator: Adobe Illustrator 27.3.1, SVG Export Plug-In . SVG Version: 6.00 Build 0)  -->
<svg version="1.1" id="svg3045" xmlns:svg="http://www.w3.org/2000/svg"
	 xmlns="http://www.w3.org/2000/svg" xmlns:xlink="http://www.w3.org/1999/xlink" x="0px" y="0px" viewBox="0 0 682.7 682.7"
	 style="enable-background:new 0 0 682.7 682.7;" xml:space="preserve">
<style type="text/css">
	.st0{fill:none;stroke:#006A75;stroke-width:40;stroke-linecap:round;stroke-linejoin:round;stroke-miterlimit:13.3333;}
</style>
<g id="g3055">
	<g id="g3061" transform="translate(275,415)">
		<path id="path3063" class="st0" d="M91.7-285.7h-293.3c-29.5,0-53.3,23.9-53.3,53.3v426.7c0,29.5,23.9,53.3,53.3,53.3H225
			c29.5,0,53.3-23.9,53.3-53.3V-99"/>
	</g>
	<g id="g3065" transform="translate(491.1426,434.5732)">
		<path id="path3067" class="st0" d="M163.7-331.3L-138-29.6l-94.3,18.9l18.9-94.3L88.3-406.8c10.4-10.4,27.3-10.4,37.7,0l37.7,37.7
			C174.1-358.6,174.1-341.8,163.7-331.3z"/>
	</g>
	<g id="g3069" transform="translate(406.2891,462.8574)">
		<path id="path3071" class="st0" d="M135.4-397.3l75.4,75.4"/>
	</g>
</g>
</svg>
