<?xml version="1.0" encoding="utf-8"?>
<!-- Generator: Adobe Illustrator 27.3.1, SVG Export Plug-In . SVG Version: 6.00 Build 0)  -->
<svg version="1.1" id="Layer_1" xmlns="http://www.w3.org/2000/svg" xmlns:xlink="http://www.w3.org/1999/xlink" x="0px" y="0px"
	 viewBox="0 0 225.8 375" style="enable-background:new 0 0 225.8 375;" xml:space="preserve">
<style type="text/css">
	.st0{fill:#87D328;}
	.st1{fill:#73B219;}
	.st2{fill:#FFFFFF;}
	.st3{fill:#006A75;}
	.st4{opacity:0.25;fill:#0186B5;}
	.st5{opacity:0.25;fill:#FFFFFF;}
	.st6{opacity:0.2;fill:#9AB1B2;}
	.st7{opacity:0.4;fill:#9AB1B2;}
	.st8{fill:#E6E8E8;}
	.st9{opacity:0.45;fill:#FFFFFF;}
</style>
<g>
	<g>
		<path class="st0" d="M165.3,359.5H0V19.8C0,12.2,6.1,6.1,13.6,6.1h151.7V359.5z"/>
		<rect y="359.5" class="st1" width="165.3" height="15.5"/>
	</g>
	<rect x="8.5" y="19.4" class="st2" width="148.4" height="340"/>
	<rect x="13.5" y="25.1" class="st3" width="138.3" height="328.6"/>
	<rect y="261.7" class="st0" width="165.3" height="7.6"/>
	<rect x="8.5" y="269.4" class="st2" width="148.4" height="5.6"/>
	<rect x="8.5" y="256.1" class="st2" width="148.4" height="5.6"/>
	<g>
		<rect x="13.5" y="275" class="st4" width="138.3" height="39.2"/>
		<polygon class="st5" points="76.1,275 57.1,314.2 41.5,314.2 60.5,275 		"/>
		<polygon class="st5" points="98.2,275 79.3,314.2 72.4,314.2 91.3,275 		"/>
		<polygon class="st5" points="130.6,275 111.6,314.2 104.8,314.2 123.7,275 		"/>
	</g>
	<g>
		<rect x="13.5" y="314.2" class="st4" width="138.3" height="39.2"/>
		<polygon class="st5" points="76.1,314.2 57.1,353.4 41.5,353.4 60.5,314.2 		"/>
		<polygon class="st5" points="98.2,314.2 79.3,353.4 72.4,353.4 91.3,314.2 		"/>
		<polygon class="st5" points="130.6,314.2 111.6,353.4 104.8,353.4 123.7,314.2 		"/>
	</g>
	<rect x="8.5" y="314.2" class="st2" width="148.4" height="5.6"/>
	<path class="st2" d="M89.3,280.1H76c-1.9,0-3.4-1.5-3.4-3.4V276c0-1.9,1.5-3.4,3.4-3.4h13.3c1.9,0,3.4,1.5,3.4,3.4v0.6
		C92.7,278.5,91.2,280.1,89.3,280.1z"/>
	<path class="st2" d="M89.3,322.6H76c-1.9,0-3.4-1.5-3.4-3.4v-0.6c0-1.9,1.5-3.4,3.4-3.4h13.3c1.9,0,3.4,1.5,3.4,3.4v0.6
		C92.7,321.1,91.2,322.6,89.3,322.6z"/>
	<polygon class="st3" points="219.5,0 219.5,260.9 198.3,260.7 164.7,260.6 164.7,8.9 	"/>
	<polygon class="st0" points="225.8,2.3 225.8,257.1 219.5,260.9 219.5,0 	"/>
	<polygon class="st3" points="219.5,269.4 219.5,361.7 164.7,359.9 164.7,269.1 197.8,269.3 	"/>
	<polygon class="st0" points="225.8,265.8 225.8,358.4 219.5,362 219.5,269.4 	"/>
	<polygon class="st1" points="225.8,265.8 219.6,269.4 197.8,269.3 164.7,269.1 169,266.6 	"/>
	<path class="st1" d="M166.4,256.1H166c-0.3,0-0.6-0.3-0.6-0.6V18.2c0-0.3,0.3-0.6,0.6-0.6h0.4c0.3,0,0.6,0.3,0.6,0.6v237.3
		C167,255.8,166.7,256.1,166.4,256.1z"/>
	<path class="st1" d="M166.1,356.3L166.1,356.3c-0.5,0-0.8-0.4-0.8-0.8v-80.6c0-0.5,0.4-0.8,0.8-0.8l0,0c0.5,0,0.8,0.4,0.8,0.8v80.6
		C167,355.9,166.6,356.3,166.1,356.3z"/>
	<path class="st6" d="M225.8,265.8v92.6l-6.3,3.6v-0.3l-55.7-1.9V355c15.8,4.7,29.9-35.1,33.7-85.7c0.1-1.1,0.2-2.3,0.2-3.5H225.8z"
		/>
	<path class="st7" d="M225.8,2.3v254.8l-6.3,3.7l-21.5-0.1c0.1-1.6,0.2-3.1,0.2-4.7c0.5-12,0.7-32.9,0.8-58v0c0-7,0.1-14.4,0.1-21.9
		c0-0.1,0-0.3,0-0.4c0-13.3,0-27.3,0-41.4v-0.1c0-7.3,0-14.6-0.1-21.9v-0.4c-0.1-14.1-0.1-28.1-0.2-41.3v-0.3
		c0-7.6-0.1-14.9-0.1-21.9c0-0.1-0.3-44.8-0.2-44.9L219.5,0L225.8,2.3z"/>
	<g>
		<g>
			<polygon class="st3" points="215.8,70.5 204,70.8 163.3,71.9 163.3,54.9 204,48.2 215.8,50.3 			"/>
			<polygon class="st2" points="204,48.2 204,70.8 184.2,72.6 179.3,73 171.9,73.6 167,74.1 161.5,74.5 161.5,52.6 173.6,51.4 
				178.5,50.9 185.9,50.1 190.8,49.6 			"/>
			<polygon class="st8" points="204,50.6 204,71 184.1,72.7 179.2,73.1 171.9,73.7 167,74.1 161.5,74.5 161.5,54.8 172.9,53.7 
				177.8,53.2 185.2,52.5 190.1,52 			"/>
			<polygon class="st9" points="178.5,50.9 177.8,53.2 171.9,73.6 171.9,73.7 167,74.1 167,74.1 172.9,53.7 173.6,51.4 			"/>
			<polygon class="st9" points="190.8,49.6 190.1,52 184.2,72.6 184.1,72.7 179.2,73.1 179.3,73 185.2,52.5 185.9,50.1 			"/>
		</g>
		<g>
			<polygon class="st3" points="215.8,143.6 204,145.2 163.1,144.2 163.1,127.2 204,122.6 215.8,123.8 			"/>
			<polygon class="st2" points="204,122.6 204,145.2 184.1,145.9 179.1,146.1 171.8,146.4 166.8,146.6 161.3,146.8 161.3,124.9 
				173.4,124.2 178.4,124 185.7,123.6 190.7,123.3 			"/>
			<polygon class="st8" points="204,125 204,145.4 184,146 179.1,146.2 171.8,146.4 166.8,146.6 161.3,146.8 161.3,127 172.7,126.5 
				177.7,126.2 185.1,125.9 190,125.7 			"/>
			<polygon class="st9" points="178.4,124 177.7,126.2 171.8,146.4 171.8,146.4 166.8,146.6 166.8,146.6 172.7,126.5 173.4,124.2 
							"/>
			<polygon class="st9" points="190.7,123.3 190,125.7 184.1,145.9 184,146 179.1,146.2 179.1,146.1 185.1,125.9 185.7,123.6 			"/>
		</g>
		<g>
			<polygon class="st3" points="215.8,212.2 204,216.5 163.3,214 163.3,197.1 215.8,193 			"/>
			<polygon class="st2" points="204,193.9 204,216.5 184.2,216.5 179.3,216.5 171.9,216.5 167,216.5 161.5,216.5 161.5,194.6 
				173.6,194.4 178.5,194.3 185.9,194.2 190.8,194.1 			"/>
			<polygon class="st8" points="204,196.3 204,216.7 184.1,216.6 179.2,216.6 171.9,216.6 167,216.6 161.5,216.5 161.5,196.8 
				172.9,196.7 177.8,196.6 185.2,196.5 190.1,196.5 			"/>
			<polygon class="st9" points="178.5,194.3 177.8,196.6 171.9,216.5 171.9,216.6 167,216.6 167,216.5 172.9,196.7 173.6,194.4 			
				"/>
			<polygon class="st9" points="190.8,194.1 190.1,196.5 184.2,216.5 184.1,216.6 179.2,216.6 179.3,216.5 185.2,196.5 185.9,194.2 
							"/>
		</g>
	</g>
</g>
</svg>
