<?xml version="1.0" encoding="UTF-8"?><svg id="Layer_1" xmlns="http://www.w3.org/2000/svg" viewBox="0 0 310.8 114.68"><defs><style>.cls-1{fill:none;}.cls-2,.cls-3{fill:#87d328;}.cls-3{font-family:AreaNormal-Thin, 'Area Normal';font-size:57px;font-weight:200;}</style></defs><text class="cls-3" transform="translate(4.05 80.39)"><tspan x="0" y="0">FRIDGI</tspan></text><rect class="cls-2" x="281.1" y="63.35" width="3.41" height="36.2"/><path class="cls-2" d="m282.83,51.22c1.73,0,3.06-1.38,3.06-3.16,0-1.65-1.33-3.03-3.06-3.03s-3.13,1.38-3.13,3.03c0,1.78,1.33,3.16,3.13,3.16Z"/><path class="cls-1" d="m241.29,102.3h48.19v-42.31h-48.19v42.31Z"/><path class="cls-1" d="m241.29,54.37h48.19V14.36h-48.19v40.01Z"/><path class="cls-2" d="m241.29,59.99h48.19v-5.62h-48.19v5.62Z"/><path class="cls-2" d="m241.29,102.3V14.36h-6.26v93.57h2.56v-5.62h3.71Z"/><path class="cls-2" d="m295.74,8.22v6.14h-6.26v40.01h3.71v5.62h-3.71v47.93h6.26V8.22h0Z"/><polygon class="cls-2" points="289.47 14.36 295.74 14.36 295.74 8.22 235.02 8.22 235.02 14.36 241.29 14.36 289.47 14.36"/><path class="cls-2" d="m289.47,59.99h3.71v-5.62h-3.71v5.62Z"/><path class="cls-2" d="m289.47,102.3h-48.19v5.62h48.19v-5.62Z"/><path class="cls-2" d="m237.58,102.3v5.62h3.71v-5.62h-3.71Z"/></svg>