<?xml version="1.0" encoding="UTF-8"?><svg id="Layer_1" xmlns="http://www.w3.org/2000/svg" viewBox="0 0 288 288"><defs><style>.cls-1{fill:none;}.cls-2,.cls-3{fill:#87d328;}.cls-3{font-family:AreaNormal-Thin, 'Area Normal';font-size:57px;font-weight:200;}</style></defs><text class="cls-3" transform="translate(42.88 214.72)"><tspan x="0" y="0">FRIDGI</tspan></text><rect class="cls-2" x="156.09" y="114.72" width="2.62" height="27.84"/><path class="cls-2" d="m157.43,105.39c1.33,0,2.35-1.06,2.35-2.43,0-1.27-1.02-2.33-2.35-2.33s-2.41,1.06-2.41,2.33c0,1.37,1.02,2.43,2.41,2.43Z"/><path class="cls-1" d="m125.47,144.68h37.07v-32.54h-37.07v32.54Z"/><path class="cls-1" d="m125.47,107.81h37.07v-30.77h-37.07v30.77Z"/><path class="cls-2" d="m125.47,112.13h37.07v-4.33h-37.07v4.33Z"/><path class="cls-2" d="m125.47,144.68v-67.64h-4.82v71.97h1.97v-4.33h2.85Z"/><path class="cls-2" d="m167.35,72.31v4.72h-4.82v30.77h2.85v4.33h-2.85v36.87h4.82v-76.69h0Z"/><polygon class="cls-2" points="162.53 77.03 167.35 77.03 167.35 72.31 120.65 72.31 120.65 77.03 125.47 77.03 162.53 77.03"/><path class="cls-2" d="m162.53,112.13h2.85v-4.33h-2.85v4.33Z"/><path class="cls-2" d="m162.53,144.68h-37.07v4.33h37.07v-4.33Z"/><path class="cls-2" d="m122.62,144.68v4.33h2.85v-4.33h-2.85Z"/></svg>