<?xml version="1.0" encoding="UTF-8"?><svg id="Layer_1" xmlns="http://www.w3.org/2000/svg" viewBox="0 0 288 288"><defs><style>.cls-1{fill:none;}.cls-2{fill:#87d328;}</style></defs><rect class="cls-2" x="182.46" y="146.98" width="6.05" height="64.22"/><path class="cls-2" d="m185.55,125.46c3.07,0,5.43-2.45,5.43-5.6,0-2.92-2.36-5.37-5.43-5.37s-5.55,2.45-5.55,5.37c0,3.15,2.36,5.6,5.55,5.6Z"/><path class="cls-1" d="m111.83,216.09h85.5v-75.06h-85.5v75.06Z"/><path class="cls-1" d="m111.83,131.04h85.5V60.06h-85.5v70.98Z"/><path class="cls-2" d="m111.83,141.02h85.5v-9.98h-85.5v9.98Z"/><path class="cls-2" d="m111.72,216.09V60.06h-10.89v166h4.44v-9.98h6.44Z"/><path class="cls-2" d="m208.33,49.18v10.89h-10.89v70.98h6.44v9.98h-6.44v85.04h10.89V49.18h0Z"/><polygon class="cls-2" points="197.33 60.06 208.44 60.06 208.44 49.18 100.72 49.18 100.72 60.06 111.83 60.06 197.33 60.06"/><path class="cls-2" d="m197.33,141.02h6.58v-9.98h-6.58v9.98Z"/><path class="cls-2" d="m197.33,215.18h-85.5v10.89h85.5v-10.89Z"/><path class="cls-2" d="m105.26,216.09v9.98h6.58v-9.98h-6.58Z"/></svg>