<?xml version="1.0" encoding="utf-8"?>
<!-- Generator: Adobe Illustrator 27.3.1, SVG Export Plug-In . SVG Version: 6.00 Build 0)  -->
<svg version="1.1" id="Layer_1" xmlns="http://www.w3.org/2000/svg" xmlns:xlink="http://www.w3.org/1999/xlink" x="0px" y="0px"
	 viewBox="0 0 210 222" style="enable-background:new 0 0 210 222;" xml:space="preserve">
<style type="text/css">
	.st0{fill:url(#SVGID_1_);}
	.st1{fill:#FFFFFF;}
	.st2{fill:#FEFEFE;}
	.st3{fill:#FDFDFD;}
	.st4{fill:#FCFCFC;}
	.st5{fill:#FBFBFB;}
	.st6{fill:#FAFAFA;}
	.st7{fill:#F9F9F9;}
	.st8{fill:#F8F8F8;}
	.st9{fill:#F7F7F7;}
	.st10{fill:#F6F6F6;}
	.st11{fill:#F5F5F6;}
	.st12{fill:#F4F4F5;}
	.st13{fill:#F3F3F4;}
	.st14{fill:#F2F2F3;}
	.st15{fill:#F1F1F2;}
	.st16{fill:#F0F0F1;}
	.st17{fill:#EFEFF0;}
	.st18{fill:#EEEFEF;}
	.st19{fill:#EDEEEE;}
	.st20{fill:#ECEDED;}
	.st21{fill:#EBECEC;}
	.st22{fill:#EAEBEB;}
	.st23{fill:#E9EAEA;}
	.st24{fill:#E8E9E9;}
	.st25{fill:#E7E8E8;}
	.st26{fill:#E6E7E7;}
	.st27{fill:#E5E6E6;}
	.st28{fill:#E4E5E5;}
	.st29{fill:#E3E4E4;}
	.st30{fill:#E2E3E4;}
	.st31{fill:#E1E2E3;}
	.st32{fill:#E0E1E2;}
	.st33{fill:#DFE0E1;}
	.st34{fill:#DEDFE0;}
	.st35{fill:#DDDEDF;}
	.st36{fill:#DCDDDE;}
	.st37{fill:#DBDCDD;}
	.st38{fill:#DADBDC;}
	.st39{fill:#D9DADB;}
	.st40{fill:#D8D9DA;}
	.st41{fill:#D7D8D9;}
	.st42{fill:#D6D7D8;}
	.st43{fill:#D5D6D7;}
	.st44{fill:#D4D5D6;}
	.st45{fill:#D3D4D5;}
	.st46{fill:#D2D3D4;}
	.st47{fill:#D1D2D3;}
	.st48{fill:#D0D1D2;}
	.st49{fill:#CFD0D1;}
	.st50{fill:#CECFD0;}
	.st51{fill:#CDCECF;}
	.st52{fill:#CCCDCE;}
	.st53{fill:#CBCCCD;}
	.st54{fill:#CACBCC;}
	.st55{fill:#C9CACB;}
	.st56{fill:#C8C9CA;}
	.st57{fill:#C7C8C9;}
	.st58{fill:#C6C7C8;}
	.st59{fill:#C5C6C7;}
	.st60{fill:#C4C5C6;}
	.st61{fill:#C3C4C5;}
	.st62{fill:#C2C3C4;}
	.st63{fill:#C1C2C3;}
	.st64{fill:#C0C1C2;}
	.st65{fill:#BFC0C1;}
	.st66{fill:#BEBFC0;}
	.st67{fill:#BDBEBF;}
	.st68{fill:#BCBDBF;}
	.st69{fill:#BBBCBE;}
	.st70{fill:#BABBBD;}
	.st71{fill:#B9BABC;}
	.st72{fill:#B8B9BB;}
	.st73{fill:#B7B8BA;}
	.st74{fill:#B6B7B9;}
	.st75{fill:#B5B6B8;}
	.st76{fill:#B4B5B7;}
	.st77{fill:#B3B4B6;}
	.st78{fill:#B2B3B5;}
	.st79{fill:#B1B2B4;}
	.st80{fill:#B0B2B3;}
	.st81{fill:#AFB1B2;}
	.st82{fill:#AEB0B1;}
	.st83{fill:#ADAFB0;}
	.st84{fill:#ACAEAF;}
	.st85{fill:#ABADAE;}
	.st86{fill:#AAACAD;}
	.st87{fill:#A9ABAD;}
	.st88{fill:#A8AAAC;}
	.st89{fill:#A7A9AB;}
	.st90{fill:#A6A8AA;}
	.st91{fill:#A5A7A9;}
	.st92{fill:#A4A6A8;}
	.st93{fill:#A3A5A7;}
	.st94{fill:#A2A4A6;}
	.st95{fill:#A1A3A5;}
	.st96{fill:#A0A2A4;}
	.st97{fill:url(#SVGID_00000073720671932257741120000000702456792584006809_);}
	.st98{opacity:0.8;fill:url(#SVGID_00000059279355469133554880000002520668305521932722_);}
	.st99{opacity:0.2;fill:url(#SVGID_00000183927935435481880220000014935135507908258183_);}
	.st100{fill:#9FDBA7;}
	.st101{opacity:0.4;fill:none;stroke:#42210B;stroke-width:0.2376;stroke-miterlimit:10;}
	.st102{fill:#FDD18D;}
	.st103{fill:#CAECCF;}
</style>
<radialGradient id="SVGID_1_" cx="500.7371" cy="534.4355" r="0" gradientTransform="matrix(1.0619 8.230000e-02 -8.230000e-02 1.0619 13.762 -62.9016)" gradientUnits="userSpaceOnUse">
	<stop  offset="0" style="stop-color:#FFFFFF"/>
	<stop  offset="1.413223e-02" style="stop-color:#FFFFFE"/>
	<stop  offset="0.3277" style="stop-color:#FEF7EB"/>
	<stop  offset="0.6506" style="stop-color:#FEF2E0"/>
	<stop  offset="0.9946" style="stop-color:#FEF1DC"/>
</radialGradient>
<path class="st0" d="M501.5,545.8"/>
<g>
	<path class="st1" d="M14.9,15.7c0,0,16.6-5.5,96.2-4.2c91.1,1.4,97.4,6.4,97.4,6.4c0.8,18.4,2.2,174.3,1.6,204.3
		c-0.1,3.7-136,11.1-210-3.3l6.8-114.1L14.9,15.7z"/>
	<path class="st2" d="M15.5,15.8c0,0,16.6-5.4,95.7-4.1c90.3,1.5,96.7,6.5,96.8,6.6c1.2,18.6,2.8,173.1,1.6,203
		c-0.1,2.6-62.3,6.8-124.9,4.8c-29.9-1-60.4-3.7-84.1-8.3l6.9-113.4L15.5,15.8z"/>
	<path class="st3" d="M16,15.9c0,0,16.7-5.4,95.2-4c89.5,1.5,96,6.6,96.2,6.8c1.5,18.8,3.2,172,1.7,201.6
		c-0.1,2.8-62.4,6.9-124.4,4.8c-29.6-0.9-60.2-4-83.6-8.6L8,103.9L16,15.9z"/>
	<path class="st4" d="M16.6,16c0,0,16.8-5.4,94.7-3.9c88.7,1.5,95.3,6.6,95.6,7.1c1.9,19,3.7,170.8,1.7,200.3
		c-0.2,2.9-62.4,6.9-123.8,4.9c-29.3-0.9-59.9-4.3-83.1-8.9l7-112L16.6,16z"/>
	<path class="st5" d="M17.2,16.1c0,0,16.8-5.3,94.2-3.8c87.9,1.6,94.5,6.7,95.1,7.3c2.2,19.2,4.1,169.7,1.7,199
		c-0.2,3-62.4,7-123.3,5c-28.9-0.9-59.7-4.7-82.6-9.1l7-111.3L17.2,16.1z"/>
	<path class="st6" d="M17.8,16.2c0,0,16.9-5.3,93.6-3.6c87.1,1.6,93.8,6.8,94.5,7.5c2.6,19.4,4.4,168.5,1.7,197.6
		c-0.3,3.2-62.5,7.1-122.8,5.1c-28.6-0.9-59.5-5-82.1-9.4l7.1-110.7L17.8,16.2z"/>
	<path class="st7" d="M18.4,16.3c0,0,16.9-5.3,93.1-3.5c86.3,1.6,93.1,6.8,93.9,7.7c2.9,19.6,4.8,167.4,1.7,196.3
		c-0.3,3.3-62.5,7.2-122.2,5.2c-28.3-0.9-59.2-5.4-81.7-9.7l7.1-110L18.4,16.3z"/>
	<path class="st8" d="M19,16.4c0,0,17-5.1,92.6-3.4c85.5,1.9,92.4,6.9,93.3,7.9c3.3,19.8,5.1,166.2,1.7,194.9
		c-0.4,3.4-62.6,7.3-121.7,5.3c-28-0.9-59-5.7-81.2-10l7.2-109.3L19,16.4z"/>
	<path class="st9" d="M19.6,16.4c0,0,17.1-5,92.1-3.3c84.7,1.9,91.7,7,92.7,8.1c3.6,20,5.3,165.1,1.7,193.6
		c-0.4,3.6-62.6,7.4-121.2,5.3c-27.7-0.9-58.8-6-80.7-10.3l7.2-108.6L19.6,16.4z"/>
	<path class="st10" d="M20.1,16.5c0,0,17.1-4.9,91.6-3.2c83.9,2,90.9,7,92.1,8.3c4,20.2,5.6,163.9,1.7,192.3
		c-0.5,3.7-62.6,7.4-120.6,5.4c-27.4-0.9-58.5-6.4-80.2-10.6L12,100.9L20.1,16.5z"/>
	<path class="st11" d="M20.7,16.6c0,0,17.2-4.9,91.1-3.1c83.1,2,90.2,7.1,91.5,8.5c4.3,20.4,5.8,162.8,1.8,190.9
		c-0.6,3.8-62.7,7.5-120.1,5.5c-27.1-0.9-58.3-6.7-79.7-10.9l7.3-107.2L20.7,16.6z"/>
	<path class="st12" d="M21.3,16.7c0,0,17.2-4.8,90.6-3c82.2,2.1,89.5,7.2,90.9,8.7c4.7,20.6,6.1,161.6,1.8,189.6
		c-0.6,4-62.7,7.6-119.6,5.6c-26.7-0.9-58-7-79.2-11.2L13.2,100L21.3,16.7z"/>
	<path class="st13" d="M21.9,16.8c0,0,17.3-4.8,90.1-2.8c81.4,2.2,88.8,7.2,90.3,8.9c5,20.8,6.3,160.5,1.8,188.3
		c-0.7,4.1-62.8,7.7-119,5.7c-26.4-0.8-57.8-7.4-78.8-11.5l7.4-105.9L21.9,16.8z"/>
	<path class="st14" d="M22.5,16.9c0,0,17.3-4.7,89.6-2.7c80.6,2.2,88.1,7.3,89.7,9.1c5.4,21,6.5,159.3,1.8,186.9
		c-0.7,4.2-62.8,7.8-118.5,5.8c-26.1-0.8-57.6-7.7-78.3-11.7l7.5-105.2L22.5,16.9z"/>
	<path class="st15" d="M23.1,17c0,0,17.4-4.7,89.1-2.6c79.8,2.3,87.3,7.4,89.1,9.3c5.7,21.2,6.6,158.2,1.8,185.6
		c-0.8,4.4-62.9,7.9-117.9,5.8c-25.8-0.8-57.3-8.1-77.8-12l7.5-104.5L23.1,17z"/>
	<path class="st16" d="M23.6,17.1c0,0,17.5-4.6,88.6-2.5c79,2.3,86.6,7.5,88.5,9.6c6.1,21.4,6.8,157,1.8,184.2
		c-0.8,4.5-62.9,8-117.4,5.9C59.7,213.5,28.1,206,7.9,202l7.6-103.8L23.6,17.1z"/>
	<path class="st17" d="M24.2,17.2c0,0,17.5-4.5,88.1-2.4c78.2,2.4,85.9,7.5,88,9.8c6.4,21.6,7,155.9,1.8,182.9
		c-0.9,4.7-62.9,8-116.9,6c-25.2-0.8-56.9-8.7-76.8-12.6L16,97.8L24.2,17.2z"/>
	<path class="st18" d="M24.8,17.3c0,0,17.6-4.5,87.5-2.3c77.4,2.5,85.2,7.6,87.4,10c6.8,21.8,7.1,154.7,1.9,181.6
		c-0.9,4.8-63,8.1-116.3,6.1c-24.9-0.8-56.6-9.1-76.3-12.9l7.7-102.4L24.8,17.3z"/>
	<path class="st19" d="M25.4,17.4c0,0,17.6-4.4,87-2.1c76.6,2.5,84.5,7.7,86.8,10.2c7.1,22,7.3,153.6,1.9,180.2
		c-1,4.9-63,8.2-115.8,6.2c-24.5-0.8-56.4-9.4-75.9-13.2l7.8-101.8L25.4,17.4z"/>
	<path class="st20" d="M26,17.5c0,0,17.7-4.4,86.5-2c75.8,2.6,83.7,7.7,86.2,10.4c7.5,22.2,7.4,152.4,1.9,178.9
		c-1.1,5.1-63.1,8.3-115.3,6.3c-24.2-0.8-56.2-9.7-75.4-13.5l7.8-101.1L26,17.5z"/>
	<path class="st21" d="M26.6,17.6c0,0,17.7-4.3,86-1.9c75,2.6,83,7.8,85.6,10.6c7.8,22.4,7.5,151.3,1.9,177.6
		c-1.1,5.2-63.1,8.4-114.7,6.4c-23.9-0.8-55.9-10.1-74.9-13.8L18.3,96L26.6,17.6z"/>
	<path class="st22" d="M27.1,17.7c0,0,17.8-4.3,85.5-1.8c74.2,2.7,82.3,7.9,85,10.8c8.2,22.6,7.6,150.1,1.9,176.2
		c-1.2,5.3-63.1,8.5-114.2,6.4c-23.6-0.8-55.7-10.4-74.4-14l7.9-99.7L27.1,17.7z"/>
	<path class="st23" d="M27.7,17.8c0,0,17.9-4.2,85-1.7c73.4,2.7,81.6,7.9,84.4,11c8.5,22.8,7.8,148.9,1.9,174.9
		c-1.2,5.5-63.2,8.5-113.7,6.5c-23.3-0.7-55.5-10.7-73.9-14.3l8-99L27.7,17.8z"/>
	<path class="st24" d="M28.3,17.9c0,0,17.9-4.1,84.5-1.6c72.6,2.8,80.9,8,83.8,11.2c8.9,23,7.9,147.8,1.9,173.5
		c-1.3,5.6-63.2,8.6-113.1,6.6c-23-0.7-55.2-11.1-73.4-14.6l8-98.3L28.3,17.9z"/>
	<path class="st25" d="M28.9,18c0,0,18-4.1,84-1.5c71.7,2.9,80.1,8.1,83.2,11.4c9.2,23.2,8,146.6,1.9,172.2
		c-1.4,5.8-63.3,8.7-112.6,6.7c-22.7-0.7-55-11.4-73-14.9l8.1-97.6L28.9,18z"/>
	<path class="st26" d="M29.5,18.1c0,0,18-4,83.5-1.3c70.9,2.9,79.4,8.1,82.6,11.6c9.6,23.4,8.1,145.5,2,170.9
		c-1.4,5.9-63.3,8.8-112.1,6.8c-22.3-0.7-54.8-11.8-72.5-15.2l8.1-97L29.5,18.1z"/>
	<path class="st27" d="M30.1,18.2c0,0,18.1-4,83-1.2c70.1,3,78.7,8.2,82,11.8c9.9,23.6,8.2,144.3,2,169.5c-1.5,6-63.4,8.9-111.5,6.9
		c-22-0.7-54.5-12.1-72-15.5l8.2-96.3L30.1,18.2z"/>
	<path class="st28" d="M30.6,18.2c0,0,18.1-3.9,82.5-1.1c69.3,3,78,8.3,81.5,12.1c10.3,23.8,8.3,143.1,2,168.2
		c-1.5,6.2-63.4,9-111,6.9c-21.7-0.7-54.3-12.4-71.5-15.8L22.3,93L30.6,18.2z"/>
	<path class="st29" d="M31.2,18.3c0,0,18.2-3.9,82-1c68.5,3.1,77.3,8.3,80.9,12.3c10.6,24,8.3,142,2,166.9
		c-1.6,6.3-63.4,9.1-110.5,7c-21.4-0.7-54.1-12.8-71-16.1l8.3-94.9L31.2,18.3z"/>
	<path class="st30" d="M31.8,18.4c0,0,18.3-3.8,81.5-0.9C181,20.7,189.8,26,193.5,30c11,24.2,8.4,140.8,2,165.5
		c-1.7,6.4-63.5,9.1-109.9,7.1c-21.1-0.7-53.8-13.1-70.5-16.3l8.3-94.2L31.8,18.4z"/>
	<path class="st31" d="M32.4,18.5c0,0,18.3-3.8,80.9-0.8c66.9,3.2,75.8,8.5,79.7,12.7c11.3,24.4,8.5,139.6,2,164.2
		c-1.7,6.6-63.5,9.2-109.4,7.2c-20.8-0.7-53.6-13.4-70.1-16.6L24,91.6L32.4,18.5z"/>
	<path class="st32" d="M33,18.6c0,0,18.4-3.7,80.4-0.7c66.1,3.2,75.1,8.5,79.1,12.9c11.7,24.6,8.6,138.5,2,162.8
		c-1.8,6.7-63.6,9.3-108.9,7.3c-20.5-0.7-53.4-13.8-69.6-16.9l8.4-92.9L33,18.6z"/>
	<path class="st33" d="M33.6,18.7c0,0,18.4-3.7,79.9-0.5c65.3,3.3,74.4,8.6,78.5,13.1c12,24.8,8.6,137.3,2.1,161.5
		c-1.9,6.9-63.6,9.4-108.3,7.4c-20.1-0.6-53.1-14.1-69.1-17.2l8.5-92.2L33.6,18.7z"/>
	<path class="st34" d="M34.1,18.8c0,0,18.5-3.6,79.4-0.4c64.5,3.4,73.7,8.7,77.9,13.3c12.4,25,8.7,136.1,2.1,160.2
		c-1.9,7-63.6,9.5-107.8,7.4c-19.8-0.6-52.9-14.4-68.6-17.5l8.5-91.5L34.1,18.8z"/>
	<path class="st35" d="M34.7,18.9c0,0,18.5-3.5,78.9-0.3c63.7,3.4,72.9,8.7,77.3,13.5c12.7,25.2,8.8,135,2.1,158.8
		c-2,7.1-63.7,9.6-107.2,7.5c-19.5-0.6-52.7-14.8-68.1-17.8l8.6-90.8L34.7,18.9z"/>
	<path class="st36" d="M35.3,19c0,0,18.6-3.5,78.4-0.2c62.9,3.5,72.2,8.8,76.7,13.7c13.1,25.4,8.9,133.8,2.1,157.5
		c-2.1,7.3-63.7,9.6-106.7,7.6c-19.2-0.6-52.4-15.1-67.6-18.1l8.7-90.1L35.3,19z"/>
	<path class="st37" d="M35.9,19.1c0,0,18.7-3.4,77.9-0.1c62.1,3.5,71.5,8.9,76.1,13.9c13.4,25.6,8.9,132.6,2.1,156.2
		c-2.1,7.4-63.8,9.7-106.2,7.7c-18.9-0.6-52.2-15.5-67.2-18.4L27.4,89L35.9,19.1z"/>
	<path class="st38" d="M36.5,19.2c0,0,18.7-3.4,77.4,0c61.2,3.6,70.8,8.9,75.5,14.1c13.8,25.8,9,131.5,2.1,154.8
		c-2.2,7.5-63.8,9.8-105.6,7.8c-18.6-0.6-52-15.8-66.7-18.7L28,88.6L36.5,19.2z"/>
	<path class="st39" d="M37.1,19.3c0,0,18.8-3.3,76.9,0.2c60.4,3.6,70.1,9,74.9,14.4c14.1,26,9,130.3,2.1,153.5
		c-2.3,7.7-63.9,9.9-105.1,7.9c-18.2-0.6-51.7-16.1-66.2-18.9l8.8-88.1L37.1,19.3z"/>
	<path class="st40" d="M37.6,19.4c0,0,18.8-3.3,76.4,0.3c59.6,3.7,69.3,9.1,74.4,14.6c14.5,26.2,9.1,129.1,2.1,152.1
		c-2.4,7.8-63.9,10-104.6,7.9c-17.9-0.6-51.5-16.5-65.7-19.2l8.9-87.4L37.6,19.4z"/>
	<path class="st41" d="M38.2,19.5c0,0,18.9-3.2,75.9,0.4c58.8,3.7,68.6,9.2,73.8,14.8c14.8,26.4,9.2,128,2.2,150.8
		c-2.4,7.9-63.9,10.1-104,8c-17.6-0.6-51.2-16.8-65.2-19.5l8.9-86.7L38.2,19.5z"/>
	<path class="st42" d="M38.8,19.6c0,0,18.9-3.2,75.4,0.5c58,3.8,67.9,9.2,73.2,15c15.2,26.6,9.2,126.8,2.2,149.5
		c-2.5,8.1-64,10.2-103.5,8.1c-17.3-0.6-51-17.1-64.7-19.8l9-86L38.8,19.6z"/>
	<path class="st43" d="M39.4,19.7c0,0,19-3.1,74.9,0.6c57.2,3.8,67.2,9.3,72.6,15.2c15.5,26.8,9.3,125.6,2.2,148.1
		c-2.6,8.2-64,10.2-103,8.2c-17-0.5-50.8-17.5-64.2-20.1l9-85.3L39.4,19.7z"/>
	<path class="st44" d="M40,19.8c0,0,19-3.1,74.3,0.7c56.4,3.9,66.5,9.4,72,15.4c15.9,27,9.3,124.4,2.2,146.8
		c-2.7,8.4-64.1,10.3-102.4,8.3c-16.7-0.5-50.5-17.8-63.8-20.4l9.1-84.6L40,19.8z"/>
	<path class="st45" d="M40.6,19.9c0,0,19.1-3,73.8,0.8c55.6,3.9,65.7,9.4,71.4,15.6c16.2,27.2,9.4,123.3,2.2,145.5
		c-2.7,8.5-64.1,10.4-101.9,8.4c-16.4-0.5-50.3-18.1-63.3-20.7L32,85.5L40.6,19.9z"/>
	<path class="st46" d="M41.2,20c0,0,19.2-3,73.3,1c54.8,4,65,9.5,70.8,15.8c16.6,27.4,9.4,122.1,2.2,144.1
		c-2.8,8.6-64.1,10.5-101.4,8.4c-16-0.5-50.1-18.5-62.8-21l9.2-83.3L41.2,20z"/>
	<path class="st47" d="M41.7,20c0,0,19.2-2.9,72.8,1.1c54,4,64.3,9.6,70.2,16c16.9,27.6,9.5,120.9,2.2,142.8
		c-2.9,8.8-64.2,10.6-100.8,8.5c-15.7-0.5-49.8-18.8-62.3-21.2l9.2-82.6L41.7,20z"/>
	<path class="st48" d="M42.3,20.1c0,0,19.3-2.9,72.3,1.2c53.2,4.1,63.6,9.6,69.6,16.2c17.3,27.8,9.5,119.7,2.3,141.4
		c-3,8.9-64.2,10.7-100.3,8.6c-15.4-0.5-49.6-19.2-61.8-21.5l9.3-81.9L42.3,20.1z"/>
	<path class="st48" d="M42.9,20.2c0,0,19.3-2.8,71.8,1.3c52.4,4.1,62.9,9.7,69,16.4c17.6,28,9.6,118.6,2.3,140.1
		c-3,9-64.3,10.8-99.8,8.7c-15.1-0.5-49.4-19.5-61.3-21.8l9.3-81.2L42.9,20.2z"/>
	<path class="st49" d="M43.5,20.3c0,0,19.4-2.8,71.3,1.4c51.5,4.1,62.1,9.8,68.4,16.6c18,28.2,9.6,117.4,2.3,138.8
		c-3.1,9.1-64.3,10.8-99.2,8.8c-14.8-0.5-49.1-19.8-60.9-22.1l9.4-80.5L43.5,20.3z"/>
	<path class="st50" d="M44.1,20.4c0,0,19.4-2.7,70.8,1.5c50.7,4.2,61.4,9.8,67.9,16.9c18.3,28.4,9.6,116.2,2.3,137.4
		c-3.2,9.3-64.4,10.9-98.7,8.9c-14.5-0.5-48.9-20.2-60.4-22.4l9.4-79.8L44.1,20.4z"/>
	<path class="st51" d="M44.7,20.5c0,0,19.5-2.7,70.3,1.6c49.9,4.2,60.7,9.9,67.3,17.1c18.7,28.6,9.7,115,2.3,136.1
		c-3.3,9.4-64.4,11-98.2,9c-14.2-0.5-48.7-20.5-59.9-22.7L36,82.4L44.7,20.5z"/>
	<path class="st52" d="M45.2,20.6c0,0,19.5-2.6,69.8,1.8c49.1,4.3,60,10,66.7,17.3c19,28.8,9.7,113.8,2.3,134.8
		c-3.4,9.5-64.4,11.1-97.6,9C72.5,183,38,162.6,27,160.5L36.5,82L45.2,20.6z"/>
	<path class="st53" d="M45.8,20.7c0,0,19.6-2.6,69.3,1.9c48.3,4.3,59.3,10,66.1,17.5c19.4,29,9.8,112.7,2.3,133.4
		c-3.5,9.7-64.5,11.2-97.1,9.1c-13.5-0.4-48.2-21.2-58.9-23.3l9.6-77.8L45.8,20.7z"/>
	<path class="st54" d="M46.4,20.8c0,0,19.7-2.5,68.8,2c47.5,4.4,58.5,10.1,65.5,17.7c19.7,29.2,9.8,111.5,2.4,132.1
		c-3.5,9.8-64.5,11.3-96.5,9.2c-13.2-0.4-48-21.5-58.4-23.6l9.7-77.1L46.4,20.8z"/>
	<path class="st55" d="M47,20.9c0,0,19.7-2.5,68.3,2.1c46.7,4.4,57.8,10.2,64.9,17.9c20.1,29.4,9.8,110.3,2.4,130.7
		c-3.6,9.9-64.6,11.3-96,9.3c-12.9-0.4-47.7-21.9-58-23.8l9.7-76.4L47,20.9z"/>
	<path class="st56" d="M47.6,21c0,0,19.8-2.4,67.7,2.2c45.9,4.4,57.1,10.2,64.3,18.1c20.4,29.6,9.9,109.1,2.4,129.4
		c-3.7,10.1-64.6,11.4-95.5,9.4C73.9,179.7,39,157.9,29.1,156l9.8-75.7L47.6,21z"/>
	<path class="st57" d="M48.2,21.1c0,0,19.8-2.4,67.2,2.3c45.1,4.5,56.4,10.3,63.7,18.3c20.8,29.8,9.9,107.9,2.4,128.1
		c-3.8,10.2-64.6,11.5-94.9,9.5c-12.3-0.4-47.3-22.5-57-24.4l9.8-75L48.2,21.1z"/>
	<path class="st58" d="M48.7,21.2c0,0,19.9-2.3,66.7,2.4c44.3,4.5,55.7,10.4,63.1,18.5c21.1,30,10,106.8,2.4,126.7
		c-3.9,10.3-64.7,11.6-94.4,9.5c-12-0.4-47-22.9-56.5-24.7L40,79.3L48.7,21.2z"/>
	<path class="st59" d="M49.3,21.3c0,0,19.9-2.3,66.2,2.6c43.5,4.6,54.9,10.4,62.5,18.7c21.5,30.2,10,105.6,2.4,125.4
		c-4,10.4-64.7,11.7-93.9,9.6c-11.6-0.4-46.8-23.2-56-25l9.9-73.7L49.3,21.3z"/>
	<path class="st60" d="M49.9,21.4c0,0,20-2.3,65.7,2.7c42.6,4.6,54.2,10.5,61.9,18.9c21.8,30.4,10,104.4,2.4,124.1
		c-4.1,10.6-64.8,11.8-93.3,9.7c-11.3-0.4-46.6-23.5-55.5-25.3l10-73L49.9,21.4z"/>
	<path class="st61" d="M50.5,21.5c0,0,20-2.2,65.2,2.8c41.8,4.6,53.5,10.6,61.4,19.1c22.2,30.6,10.1,103.2,2.4,122.7
		c-4.2,10.7-64.8,11.9-92.8,9.8c-11-0.4-46.3-23.9-55.1-25.6l10-72.3L50.5,21.5z"/>
	<path class="st62" d="M51.1,21.6c0,0,20.1-2.2,64.7,2.9c41,4.7,52.8,10.6,60.8,19.4c22.5,30.8,10.1,102,2.5,121.4
		c-4.3,10.8-64.9,11.9-92.3,9.9c-10.7-0.3-46.1-24.2-54.6-25.9l10.1-71.6L51.1,21.6z"/>
	<path class="st63" d="M51.7,21.7c0,0,20.1-2.1,64.2,3c40.2,4.7,52.1,10.7,60.2,19.6c22.9,31,10.1,100.8,2.5,120
		c-4.4,10.9-64.9,12-91.7,10c-10.4-0.3-45.9-24.5-54.1-26.1l10.1-70.9L51.7,21.7z"/>
	<path class="st64" d="M52.2,21.7c0,0,20.2-2.1,63.7,3.1c39.4,4.7,51.3,10.8,59.6,19.8c23.2,31.2,10.2,99.7,2.5,118.7
		c-4.5,11.1-64.9,12.1-91.2,10c-10.1-0.3-45.6-24.9-53.6-26.4l10.2-70.3L52.2,21.7z"/>
	<path class="st65" d="M52.8,21.8c0,0,20.3-2,63.2,3.3c38.6,4.8,50.6,10.9,59,20c23.6,31.4,10.2,98.5,2.5,117.4
		c-4.6,11.2-65,12.2-90.7,10.1c-9.8-0.3-45.4-25.2-53.1-26.7l10.2-69.6L52.8,21.8z"/>
	<path class="st66" d="M53.4,21.9c0,0,20.3-2,62.7,3.4c37.8,4.8,49.9,10.9,58.4,20.2c23.9,31.6,10.2,97.3,2.5,116
		c-4.7,11.3-65,12.3-90.1,10.2c-9.4-0.3-45.2-25.6-52.6-27l10.3-68.9L53.4,21.9z"/>
	<path class="st67" d="M54,22c0,0,20.4-2,62.2,3.5c37,4.8,49.2,11,57.8,20.4c24.3,31.8,10.3,96.1,2.5,114.7
		c-4.8,11.4-65.1,12.4-89.6,10.3c-9.1-0.3-44.9-25.9-52.2-27.3l10.3-68.2L54,22z"/>
	<path class="st68" d="M54.6,22.1c0,0,20.4-1.9,61.6,3.6c36.2,4.9,48.5,11.1,57.2,20.6c24.6,32,10.3,94.9,2.5,113.4
		c-4.9,11.6-65.1,12.4-89.1,10.4c-8.8-0.3-44.7-26.2-51.7-27.6L45.7,75L54.6,22.1z"/>
	<path class="st69" d="M55.2,22.2c0,0,20.5-1.9,61.1,3.7c35.4,4.9,47.7,11.1,56.6,20.8c25,32.2,10.3,93.7,2.6,112
		c-5,11.7-65.1,12.5-88.5,10.5c-8.5-0.3-44.5-26.6-51.2-27.9l10.5-66.8L55.2,22.2z"/>
	<path class="st70" d="M55.7,22.3c0,0,20.5-1.9,60.6,3.8c34.6,4.9,47,11.2,56,21c25.3,32.4,10.4,92.5,2.6,110.7
		c-5.1,11.8-65.2,12.6-88,10.5c-8.2-0.3-44.2-26.9-50.7-28.2l10.5-66.1L55.7,22.3z"/>
	<path class="st71" d="M56.3,22.4c0,0,20.6-1.8,60.1,3.9c33.7,4.9,46.3,11.3,55.4,21.2c25.7,32.6,10.4,91.3,2.6,109.3
		c-5.2,11.9-65.2,12.7-87.4,10.6c-7.9-0.3-44-27.2-50.2-28.4l10.6-65.5L56.3,22.4z"/>
	<path class="st72" d="M56.9,22.5c0,0,20.6-1.8,59.6,4.1c32.9,5,45.6,11.3,54.8,21.4c26,32.8,10.4,90.1,2.6,108
		c-5.3,12-65.3,12.8-86.9,10.7c-7.6-0.2-43.7-27.6-49.7-28.7l10.6-64.8L56.9,22.5z"/>
	<path class="st73" d="M57.5,22.6c0,0,20.7-1.8,59.1,4.2c32.1,5,44.9,11.4,54.3,21.6c26.4,33,10.5,88.9,2.6,106.7
		c-5.4,12.2-65.3,12.9-86.4,10.8c-7.2-0.2-43.5-27.9-49.3-29l10.7-64.1L57.5,22.6z"/>
	<path class="st74" d="M58.1,22.7c0,0,20.7-1.8,58.6,4.3c31.3,5,44.1,11.5,53.7,21.9c26.7,33.2,10.5,87.8,2.6,105.3
		c-5.5,12.3-65.4,13-85.8,10.9c-6.9-0.2-43.3-28.2-48.8-29.3l10.7-63.4L58.1,22.7z"/>
	<path class="st75" d="M58.7,22.8c0,0,20.8-1.7,58.1,4.4c30.5,5,43.4,11.5,53.1,22.1c27.1,33.4,10.5,86.6,2.6,104
		c-5.6,12.4-65.4,13-85.3,11c-6.6-0.2-43-28.6-48.3-29.6l10.8-62.7L58.7,22.8z"/>
	<path class="st76" d="M59.2,22.9c0,0,20.9-1.7,57.6,4.5c29.7,5,42.7,11.6,52.5,22.3c27.4,33.6,10.6,85.4,2.6,102.7
		c-5.7,12.5-65.4,13.1-84.8,11c-6.3-0.2-42.8-28.9-47.8-29.9l10.8-62L59.2,22.9z"/>
	<path class="st77" d="M59.8,23c0,0,20.9-1.7,57.1,4.6c28.9,5,42,11.7,51.9,22.5c27.8,33.8,10.6,84.2,2.7,101.3
		c-5.8,12.6-65.5,13.2-84.2,11.1c-6-0.2-42.6-29.3-47.3-30.2L50.8,71L59.8,23z"/>
	<path class="st78" d="M60.4,23.1c0,0,21-1.7,56.6,4.7c28.1,5.1,41.3,11.7,51.3,22.7c28.1,34,10.6,83,2.7,100
		c-6,12.7-65.5,13.3-83.7,11.2c-5.7-0.2-42.3-29.6-46.8-30.5l10.9-60.7L60.4,23.1z"/>
	<path class="st79" d="M61,23.2c0,0,21-1.6,56.1,4.9c27.3,5.1,40.5,11.8,50.7,22.9c28.5,34.2,10.7,81.8,2.7,98.6
		c-6.1,12.8-65.6,13.4-83.2,11.3c-5.3-0.2-42.1-29.9-46.3-30.8l11-60L61,23.2z"/>
	<path class="st80" d="M61.6,23.3c0,0,21.1-1.6,55.6,5c26.5,5.1,39.8,11.9,50.1,23.1c28.8,34.4,10.7,80.6,2.7,97.3
		c-6.2,13-65.6,13.5-82.6,11.4c-5-0.2-41.9-30.3-45.9-31l11-59.3L61.6,23.3z"/>
	<path class="st81" d="M62.2,23.4c0,0,21.1-1.6,55,5.1c25.7,5.1,39.1,11.9,49.5,23.3c29.2,34.6,10.7,79.4,2.7,96
		c-6.3,13.1-65.6,13.5-82.1,11.5c-4.7-0.2-41.6-30.6-45.4-31.3l11.1-58.6L62.2,23.4z"/>
	<path class="st82" d="M62.7,23.5c0,0,21.2-1.6,54.5,5.2c24.9,5.1,38.4,12,48.9,23.5c29.5,34.8,10.8,78.2,2.7,94.6
		c-6.4,13.2-65.7,13.6-81.6,11.6c-4.4-0.1-41.4-30.9-44.9-31.6l11.1-57.9L62.7,23.5z"/>
	<path class="st83" d="M63.3,23.5c0,0,21.3-1.6,54,5.3c24.1,5.1,37.7,12.1,48.3,23.7c29.9,35,10.8,77,2.7,93.3
		c-6.6,13.3-65.7,13.7-81,11.6c-4.1-0.1-41.2-31.3-44.4-31.9l11.2-57.2L63.3,23.5z"/>
	<path class="st84" d="M63.9,23.6c0,0,21.3-1.6,53.5,5.4c23.3,5.1,36.9,12.1,47.8,23.9c30.2,35.2,10.8,75.8,2.8,92
		c-6.7,13.4-65.8,13.8-80.5,11.7c-3.8-0.1-40.9-31.6-43.9-32.2l11.2-56.6L63.9,23.6z"/>
	<path class="st85" d="M64.5,23.7c0,0,21.4-1.6,53,5.5c22.5,5.1,36.2,12.2,47.2,24.1c30.6,35.4,10.8,74.6,2.8,90.6
		c-6.8,13.5-65.8,13.9-80,11.8c-3.5-0.1-40.7-31.9-43.4-32.5l11.3-55.9L64.5,23.7z"/>
	<path class="st86" d="M65.1,23.8c0,0,21.4-1.6,52.5,5.7c21.7,5.1,35.5,12.3,46.6,24.4c30.9,35.6,10.9,73.4,2.8,89.3
		c-6.9,13.6-65.9,14-79.4,11.9c-3.1-0.1-40.5-32.3-43-32.8l11.4-55.2L65.1,23.8z"/>
	<path class="st87" d="M65.7,23.9c0,0,21.5-1.6,52,5.8c20.8,5.1,34.8,12.3,46,24.6c31.3,35.8,10.9,72.2,2.8,87.9
		c-7.1,13.7-65.9,14.1-78.9,12c-2.8-0.1-40.2-32.6-42.5-33.1l11.4-54.5L65.7,23.9z"/>
	<path class="st88" d="M66.3,24c0,0,21.6-1.6,51.5,5.9c20,5.1,34.1,12.4,45.4,24.8c31.6,36,10.9,71,2.8,86.6
		c-7.2,13.8-65.9,14.1-78.4,12.1c-2.5-0.1-40-33-42-33.3L57,66.2L66.3,24z"/>
	<path class="st89" d="M66.8,24.1c0,0,21.6-1.7,51,6c19.2,5,33.3,12.5,44.8,25c32,36.2,11,69.8,2.8,85.3
		c-7.3,13.9-66,14.2-77.8,12.1c-2.2-0.1-39.8-33.3-41.5-33.6l11.5-53.1L66.8,24.1z"/>
	<path class="st90" d="M67.4,24.2c0,0,21.7-1.7,50.5,6.1c18.5,5,32.6,12.6,44.2,25.2c32.3,36.4,11,68.6,2.8,83.9
		c-7.5,14-66,14.3-77.3,12.2c-1.9-0.1-39.5-33.6-41-33.9l11.6-52.4L67.4,24.2z"/>
	<path class="st91" d="M68,24.3c0,0,21.8-1.7,50,6.2c17.7,5,31.9,12.6,43.6,25.4c32.7,36.6,11,67.4,2.8,82.6
		c-7.6,14.1-66.1,14.4-76.7,12.3c-1.6-0.1-39.3-34-40.5-34.2l11.6-51.8L68,24.3z"/>
	<path class="st92" d="M68.6,24.4c0,0,21.9-1.8,49.5,6.4c16.9,5,31.2,12.7,43,25.6c33,36.8,11.1,66.2,2.9,81.3
		c-7.7,14.2-66.1,14.5-76.2,12.4c-1.3,0-39.1-34.3-40.1-34.5l11.7-51.1L68.6,24.4z"/>
	<path class="st93" d="M69.2,24.5c0,0,22-1.9,49,6.5c16.1,5,30.5,12.8,42.4,25.8c33.4,37,11.1,64.9,2.9,79.9
		c-7.9,14.3-66.1,14.6-75.7,12.5c-0.9,0-38.8-34.6-39.6-34.8L59.9,64L69.2,24.5z"/>
	<path class="st94" d="M69.8,24.6c0,0,22-1.9,48.4,6.6c15.3,4.9,29.7,12.8,41.8,26c33.7,37.2,11.1,63.7,2.9,78.6
		c-8,14.4-66.2,14.6-75.1,12.6c-0.6,0-38.6-35-39.1-35.1l11.8-49.7L69.8,24.6z"/>
	<path class="st95" d="M70.3,24.7c0,0,22.1-2,47.9,6.7c14.5,4.9,29,12.9,41.3,26.2c34.1,37.4,11.2,62.5,2.9,77.2
		c-8.2,14.5-66.2,14.7-74.6,12.6c-0.3,0-38.4-35.3-38.6-35.4l11.8-49L70.3,24.7z"/>
	<path class="st96" d="M49.7,111l38.1,35.7c7.8,2.1,65.8,1.9,74.1-12.7c8.3-14.6,31.5-38.3-2.9-75.9c-35-38.2-88.1-33.3-88.1-33.3
		L49.7,111z"/>
</g>
<g>
	<g>
		
			<linearGradient id="SVGID_00000129172503925570914340000009099005401555758468_" gradientUnits="userSpaceOnUse" x1="113.9909" y1="17.2887" x2="110.413" y2="214.4397" gradientTransform="matrix(0.9997 -1.120000e-02 2.190000e-02 1 -10.4369 2.1918)">
			<stop  offset="0" style="stop-color:#FDF48F"/>
			<stop  offset="1" style="stop-color:#FFFFA5"/>
		</linearGradient>
		<path style="fill:url(#SVGID_00000129172503925570914340000009099005401555758468_);" d="M201.6,151.1c0.9,42.7-5.9,65.4-5.9,65.4
			L7.4,214.5c0,0,1.1-22.8,1.2-54.7c0-38,1.1-39.4-0.4-146l192.4-0.2C200.5,13.6,200.7,108.4,201.6,151.1z"/>
		
			<linearGradient id="SVGID_00000102536508811184080630000005622839008377271701_" gradientUnits="userSpaceOnUse" x1="181.8842" y1="189.9811" x2="201.1697" y2="212.5597" gradientTransform="matrix(0.9997 -1.120000e-02 2.190000e-02 1 -10.4369 2.1918)">
			<stop  offset="6.451610e-02" style="stop-color:#FEFC9F"/>
			<stop  offset="0.8505" style="stop-color:#FFEB8F"/>
			<stop  offset="1" style="stop-color:#FEFC9F"/>
		</linearGradient>
		<path style="opacity:0.8;fill:url(#SVGID_00000102536508811184080630000005622839008377271701_);" d="M199.2,131.9
			c-0.7,3.6-7.8,25.2-29.4,48.4c-11.1,11.9-40.8,35.2-53.3,37l79.2-1c0,0,6.8-22.8,5.9-65.4c-0.2-7.1-0.4-16.2-0.8-26.3
			C200.5,124.9,199.3,131.7,199.2,131.9z"/>
		
			<linearGradient id="SVGID_00000044861267332374142240000003243545980679525520_" gradientUnits="userSpaceOnUse" x1="113.2308" y1="2.6529" x2="114.7973" y2="45.9727" gradientTransform="matrix(0.9997 -1.120000e-02 2.190000e-02 1 -10.4369 2.1918)">
			<stop  offset="0.2581" style="stop-color:#FBD24A"/>
			<stop  offset="0.54" style="stop-color:#FBD34C"/>
			<stop  offset="0.6553" style="stop-color:#FBD653"/>
			<stop  offset="0.74" style="stop-color:#FCDC5F"/>
			<stop  offset="0.8099" style="stop-color:#FCE571"/>
			<stop  offset="0.8699" style="stop-color:#FDF087"/>
			<stop  offset="0.8925" style="stop-color:#FDF592"/>
		</linearGradient>
		<path style="opacity:0.2;fill:url(#SVGID_00000044861267332374142240000003243545980679525520_);" d="M200.9,36.7L9,35.7
			c0,0-0.8-10.8-0.8-14.3c-0.1-3.5,0.1-2.8-1.1-8L199.7,14L200.9,36.7z"/>
	</g>
	<g>
		<path class="st100" d="M141.7,4.1C139.3,4.1,141.7,4,141.7,4.1c0.6,0.2-3.5,0.4,0,0.7c-0.8,0.3-0.8,0.6,0,1c0.6,0.4-2,0.9,0,1.4
			c-0.1,0.5-1.4,1.1,0,1.6c2.1,0.6,0.5,1.2,0,1.8c2.6,0.3-2.5,0.6,0,1c-3.1,0.3-3.3,0.6,0,1c1.5,0.2,2.4,0.4,1.1,0.7
			c2.2,0.2-1.6,0.4-1,0.7c-0.3,0.2-0.5,0.4,0,0.7c-0.3,0.6,1.1,1.3,0,1.9c-2,0.6-1.9,1.2,0,1.8c0.6,0.6-0.2,1.1,0,1.6
			c-0.5,0.5,1.6,1,0,1.4c-0.5,0.4,2.6,0.8,0,1.1c2.1,0.3,1.7,0.8,0,1c-2.7,0.2,1.7,0.5-0.7,0.5c2.1,0-3.9,0.1-0.5,0.1
			c2.3,0-4.2,0.1-0.6,0.1c5.3,0-0.4,0-0.8,0c-2.3,0-0.2,0-0.9,0c-1.7,0-2.9,0-1,0c-1.1,0-1.9-0.1-1.1-0.1c-0.8,0-0.8,0-1.2,0
			c-11.1,0-33.2,0-45.2,0c-0.5,0-0.9,0-1.4,0c-1,0-1.1,0-1.3,0c-0.2,0,0.2-0.1-1.2-0.1c0.8,0,0.7,0-1.1,0c1.3,0-3.1,0-0.9,0
			c2.2,0-2.2,0.1-0.8,0.1c0.9,0-1.9,0.1-0.6,0.1c-1.3,0-1.3,0-0.5,0c-0.8,0-0.7,0-0.3,0c-0.4,0-0.5,0-0.1,0c-0.5,0-0.7-0.4,0-0.6
			c-0.1-0.2,0.5-0.6,0-0.9c-0.7-0.3-0.7-0.7,0-1.2c-0.4-0.4-3.4-0.9,0-1.4c-0.5-0.5-2.4-1.1,0-1.7c4.1-0.6,2.2-1.2,0-1.8
			c0-0.4-1.3-0.9-1.3-1.3c0-0.2,0.3-0.4,1.3-0.7c5.6-0.2,0-0.4,0.6-0.7c-1.7-0.2-1.8-0.4-0.7-0.7c-1.1-0.2-1.3-0.4,0.1-0.7
			c-1.8-0.3,1.2-0.7,0-1c-2.2-0.3-1.9-0.6,0-1c-2.4-0.6,4.4-1.2,0-1.8c-1.9-0.6,0.4-1.1,0-1.6c4.5-0.5,0.9-1,0-1.4
			c-2.3-0.4,4.5-0.8,0-1.1c-1.2-0.3-0.9-0.3,0-0.4c-0.1-0.2,0,0,0,0s0,0,0.1,0c0.1,0,1.4,0,0.3,0c-0.2,0,1.5,0,0.5,0
			c-0.7,0-0.1,0,0.6,0c-0.6,0-0.3,0,0.8,0c1.7,0,1.1,0,0.9,0c1.4,0,2.5,0,1.1,0c0.8,0,0.7,0,1.2,0c0.4,0,0.9,0,1.3,0
			c12.8,0,40.2,0,49.8,0c0.3,0,0.3,0,0.9,0c-0.4,0-0.4-0.1,0.8-0.1c-1.2,0-1.1-0.1,0.6-0.1c-1.8,0-1.2,0,0.5,0c3.6,0-0.1,0,0.4,0
			c0.8,0,0.4,0,0.2,0C140,4,139.7,4.1,141.7,4.1z"/>
		<line class="st101" x1="83" y1="23.9" x2="140.6" y2="24"/>
	</g>
	<g>
		<path class="st102" d="M81.5,4.4C81.5,4.4,81.6,4.4,81.5,4.4C81.5,4.3,81.5,4.4,81.5,4.4z"/>
		<path class="st102" d="M84.8,4C84.8,4,84.8,4,84.8,4C84.8,4,84.8,4,84.8,4z"/>
		<path class="st102" d="M141.7,4.2C141.7,4.1,139.4,4.2,141.7,4.2L141.7,4.2z"/>
		<path class="st102" d="M141.8,4.2c1.5,0,0.5,0-0.1,0l0,0C141.7,4.2,141.7,4.2,141.8,4.2z"/>
		<path class="st103" d="M81.6,11.6c1.2,0.3-1.8,0.6,0,1c-1.4,0.2-1.1,0.7-0.1,0.9c-0.1,0-0.3-0.6-0.4,0.3l61.7-0.6
			c-0.3-0.9-0.7-0.4-1.1-0.4c-3.3-0.3-3.2-0.8,0-1.1c-2.5-0.3,2.6-0.7,0-1c0.5-0.6,2.1-1.3,0-1.8c-1.4-0.6-0.2-1.1,0-1.6
			c-2-0.5,0.5-1,0-1.4c-0.9-0.4-0.8-0.7,0-1c-3.6-0.3,0.6-0.4,0-0.6c0,0,0-0.1,0-0.1c0.1,0,0.2-0.1,0.1-0.1c0,0-0.1,0-0.1,0l0,0
			c0,0,0,0,0,0c0,0,0,0,0,0l0,0c-1.5,0-1.7,0.1-0.9,0.1c-0.8,0-1.3,0.1-1.4,0.1c-0.6,0-0.4,0,0.5,0c-1.1,0-1.1,0-0.8,0
			c-0.6,0-0.6,0-0.9,0c-9.6,0-37,0-49.8,0c-0.5,0-0.9,0-1.3,0c-0.5,0-0.4,0-1.2,0c1.4,0,0.3,0-1,0c0.2,0,0.6,0-1,0
			c-1.1,0-1.3,0-0.8,0c-0.8,0-1.4,0-0.6,0c1,0-0.6-0.1-0.5-0.1c1.2,0-0.2,0-0.3,0c-0.1,0-0.1,0-0.1,0s0,0,0,0c-0.8,0.1-1.1,0,0,0.3
			c4.5,0.3-2.3,0.7,0,1.1c1,0.4,4.5,0.9,0,1.4c0.4,0.5-1.9,1.1,0,1.7c4.4,0.6-2.3,1.2,0,1.8C79.8,11,79.4,11.3,81.6,11.6z"/>
		<polygon class="st102" points="141.7,4.2 141.7,4.2 141.7,4.2 		"/>
	</g>
</g>
</svg>
