<?xml version="1.0" encoding="utf-8"?>
<!-- Generator: Adobe Illustrator 27.4.0, SVG Export Plug-In . SVG Version: 6.00 Build 0)  -->
<svg version="1.1" id="svg3852" xmlns:svg="http://www.w3.org/2000/svg"
	 xmlns="http://www.w3.org/2000/svg" xmlns:xlink="http://www.w3.org/1999/xlink" x="0px" y="0px" viewBox="0 0 619 496.8"
	 style="enable-background:new 0 0 619 496.8;" xml:space="preserve">
<style type="text/css">
	.st0{fill:none;stroke:#F2F2F2;stroke-width:10;stroke-linecap:round;stroke-linejoin:round;stroke-miterlimit:13.3333;}
</style>
<g>
	<g id="g3868" transform="translate(41.8423,250.8633)">
		<path id="path3870" class="st0" d="M54.4,2.7H32.7C25.7,2.7,20-3,20-10v-36.2c0-7,5.7-12.7,12.7-12.7h471.5
			c7,0,12.7,5.7,12.7,12.7V-10c0,7-5.7,12.7-12.7,12.7H89.4"/>
	</g>
	<g id="g3872" transform="translate(352.8774,166.8594)">
		<path id="path3874" class="st0" d="M54.3,170.6c10-8.6,19.1-19.4,26.4-32.2c14.9-25.8,19.5-53.8,14.7-77
			c-4.5-21.9-3.3-44.5,4.1-65.6l0.4-1.1L71.4-21.7l-0.7,0.9C56.2-3.9,37.1,8.5,15.9,15.5C-6.6,23-28.5,41-43.4,66.8
			c-21.3,37-21.6,78.6-3.3,103.9"/>
	</g>
	<g id="g3876" transform="translate(306.4907,175.8379)">
		<path id="path3878" class="st0" d="M54.3,152.7c10.5-12.3,21.8-28.3,32.3-46.6c14-24.3,24-47.8,28.5-65.5
			c5.1-19.8,12.1-39.5,21.3-58.4l0.8-1.7l-10.5-6.1l-1,1.6C114-6.5,100.5,9.4,85.9,23.7C72.8,36.5,57.5,56.9,43.4,81.2
			c-18.5,32-29.9,62.5-31.1,80.5"/>
	</g>
	<g id="g3880" transform="translate(406.0264,429.9697)">
		<path id="path3882" class="st0" d="M54.3-355.5l34.5-59.7c1.8-3.1,5.8-4.2,9-2.4l24.3,14.1c3.1,1.8,4.2,5.8,2.4,9l-72,124.7
			c-1.2,2-3.7,2.7-5.7,1.5l-28.5-16.4c-2-1.2-2.7-3.7-1.5-5.7l20.3-35.2"/>
	</g>
	<g id="g3884" transform="translate(376.2314,390.2422)">
		<path id="path3886" class="st0" d="M54.3-276l46,26.5"/>
	</g>
	<g id="g3888" transform="translate(420.1318,88.292)">
		<path id="path3890" class="st0" d="M54.3,327.7c18.5-17.5,34-38.2,45.7-61.2c-19.9,2.6-29.4,12.4-59.9,7.5
			c-40.9-6.5-37.8-26.2-78.7-32.7s-44,13.3-84.9,6.8s-37.8-26.2-78.7-32.7s-44,13.3-84.9,6.8c-30.5-4.8-36.5-17-54.6-25.6
			c11.8,84.1,70.4,153.2,148.6,180.2c4.3,1.5,7.2,5.5,7.2,10v4c0,3.4,2.8,6.2,6.2,6.2H-40c3.4,0,6.2-2.8,6.2-6.2v-4
			c0-4.5,2.9-8.5,7.2-10c19.1-6.6,37.1-15.7,53.5-27"/>
	</g>
	<g id="g3892" transform="translate(87.6294,157.6699)">
		<path id="path3894" class="st0" d="M54.4,189c2.2,0.1,4.4,0.2,6.6,0.2c16.4,0,28.3-3.6,37-6.2c6.7-2,10.7-3.2,16.8-3.2
			c3,0,6.4,0.3,10.1,0.9c12.5,2,16.9,5,24.8,10.5c10.7,7.5,25.5,17.7,53.8,22.2"/>
	</g>
	<g id="g3896" transform="translate(375.4502,427.0098)">
		<path id="path3898" class="st0" d="M54.3-349.6c-17.4-14.5-26.8-27.5-23-34.1c6-10.3,42.8-0.2,82.3,22.6
			c39.5,22.8,66.7,49.6,60.7,60c-3.8,6.5-19.8,4.9-41-2.9"/>
	</g>
	<g id="g3900" transform="translate(465.8745,149.5039)">
		<path id="path3902" class="st0" d="M54.2,205.3c15.5-30.4,24.2-64.9,24.2-101.3"/>
	</g>
	<g id="g3904" transform="translate(21.9219,250.8633)">
		<path id="path3906" class="st0" d="M54.4,2.7c0,10.7,0.7,21.1,2.2,31.4"/>
	</g>
</g>
</svg>
