<?xml version="1.0" encoding="utf-8"?>
<!-- Generator: Adobe Illustrator 27.4.0, SVG Export Plug-In . SVG Version: 6.00 Build 0)  -->
<svg version="1.1" id="svg1659" xmlns:svg="http://www.w3.org/2000/svg"
	 xmlns="http://www.w3.org/2000/svg" xmlns:xlink="http://www.w3.org/1999/xlink" x="0px" y="0px" viewBox="0 0 682.7 682.7"
	 style="enable-background:new 0 0 682.7 682.7;" xml:space="preserve">
<style type="text/css">
	.st0{fill:none;stroke:#F2F2F2;stroke-width:10;stroke-linecap:round;stroke-linejoin:round;stroke-miterlimit:13.3333;}
</style>
<g id="g1669">
	<g id="g1675" transform="translate(256,497)">
		<path id="path1677" class="st0" d="M85.3-477c23.7,0,42.8,19.2,42.8,42.8c0,23.6-19.2,42.8-42.8,42.8c-23.6,0-42.8-19.2-42.8-42.8
			C42.5-457.8,61.7-477,85.3-477z"/>
	</g>
	<g id="g1679" transform="translate(464.8667,223.8662)">
		<path id="path1681" class="st0" d="M155,160.3h-557c0-153.7,124.8-278.5,278.5-278.5C30.2-118.2,155,6.6,155,160.3z"/>
	</g>
	<g id="g1683" transform="translate(15,223.8662)">
		<path id="path1685" class="st0" d="M5,160.3h642.7"/>
	</g>
	<g id="g1687" transform="translate(15,79.2666)">
		<path id="path1689" class="st0" d="M5,497.7L90.7,412v0c0-28.4,11.3-55.6,31.4-75.7c20.1-20.1,47.3-31.4,75.7-31.4h64.3
			c11.4,0,22.3,4.5,30.3,12.5c8,8,12.5,18.9,12.5,30.3s-4.5,22.3-12.5,30.3c-8,8-18.9,12.5-30.3,12.5h-64.3h150
			c0,0,42.2-33.8,73.7-58.9c21.7-17.3,48.6-26.8,76.3-26.8h0c12.8,0,24.1,8.1,28.4,20.1c4.2,12,0.4,25.4-9.6,33.4
			c-62.9,50.3-147.3,117.9-147.3,117.9l-192.8,21.4l-85.7,85.7L5,497.7z"/>
	</g>
</g>
</svg>
