<?xml version="1.0" encoding="utf-8"?>
<!-- Generator: Adobe Illustrator 27.4.0, SVG Export Plug-In . SVG Version: 6.00 Build 0)  -->
<svg version="1.1" id="svg4038" xmlns:svg="http://www.w3.org/2000/svg"
	 xmlns="http://www.w3.org/2000/svg" xmlns:xlink="http://www.w3.org/1999/xlink" x="0px" y="0px" viewBox="0 0 528 520"
	 style="enable-background:new 0 0 528 520;" xml:space="preserve">
<style type="text/css">
	.st0{fill:none;stroke:#F2F2F2;stroke-width:13.3333;stroke-linecap:round;stroke-linejoin:round;stroke-miterlimit:17.7777;}
</style>
<g id="g4044" transform="matrix(1.3333333,0,0,-1.3333333,0,682.66667)">
	<g id="g4046">
		<g>
			<g id="g4048">
				<g id="g4054" transform="translate(437.0875,422.7533)">
					<path id="path4056" class="st0" d="M-102.5,21.7C-72-11.5-53.3-55.8-53.3-104.5c0-102.9-83.4-186.3-186.3-186.3
						s-186.3,83.4-186.3,186.3s83.4,186.3,186.3,186.3c7.7,0,15.3-0.5,22.7-1.4"/>
				</g>
				<g id="g4058" transform="translate(159.6039,409.242)">
					<path id="path4060" class="st0" d="M-35.1,25c53,33.3,123.8,27,169.9-19.1c53.5-53.5,53.5-140.2,0-193.7s-140.2-53.5-193.7,0
						c-46.2,46.2-52.5,117.1-19,170"/>
				</g>
				<g id="g4062" transform="translate(435.3333,386.1668)">
					<path id="path4064" class="st0" d="M-102.1,30.6v28.8h28.8"/>
				</g>
				<g id="g4066" transform="translate(231.5501,256)">
					<path id="path4068" class="st0" d="M-52.6,62.2c0-10.2,8.3-18.5,18.5-18.5s18.5,8.3,18.5,18.5S-23.8,80.8-34,80.8
						S-52.6,72.5-52.6,62.2z"/>
				</g>
				<g id="g4070" transform="translate(398.3333,255.8374)">
					<path id="path4072" class="st0" d="M-93.1,62.3h-9.3"/>
				</g>
				<g id="g4074" transform="translate(113.6667,256.1626)">
					<path id="path4076" class="st0" d="M-23.9,62.2h9.3"/>
				</g>
				<g id="g4078" transform="translate(256.1626,398.3333)">
					<path id="path4080" class="st0" d="M-58.5,27.6v-9.3"/>
				</g>
				<g id="g4082" transform="translate(255.8374,113.6667)">
					<path id="path4084" class="st0" d="M-58.5,96.9v9.3"/>
				</g>
				<g id="g4086" transform="translate(238.7113,273.2887)">
					<path id="path4088" class="st0" d="M-54.3,58l-30.2,30.2"/>
				</g>
				<g id="g4090" transform="translate(273.2887,273.2887)">
					<path id="path4092" class="st0" d="M-62.7,58l56.3,56.3"/>
				</g>
				<g id="g4094" transform="translate(128.0137,383.9863)">
					<path id="path4096" class="st0" d="M-27.4,31.1L-27.4,31.1"/>
				</g>
				<g id="g4098" transform="translate(325.2751,492.2863)">
					<path id="path4100" class="st0" d="M-75.3,4.8L-75.3,4.8"/>
				</g>
			</g>
		</g>
	</g>
</g>
</svg>
